<svg width="247" height="76" viewBox="0 0 247 76" fill="none" xmlns="http://www.w3.org/2000/svg">
<circle cx="37.7209" cy="37.7209" r="36.7209" stroke="url(#paint0_linear_1669_7198)" stroke-width="2"/>
<path d="M205.823 44.8028C205.823 45.4329 206.313 45.9055 206.978 45.9055C207.66 45.9055 208.151 45.4329 208.151 44.8028C208.151 44.1726 207.66 43.7 206.978 43.7C206.313 43.7 205.823 44.1376 205.823 44.8028ZM220.529 38.5714C219.741 37.4161 218.621 36.891 217.063 36.891C214.14 36.891 212.792 38.9564 212.792 41.442C212.792 44.0151 214.123 45.9055 217.151 45.9055C218.901 45.9055 220.424 44.8728 220.914 43.3674C220.249 44.3302 219.286 45.1703 217.938 45.1703C215.418 45.1703 214.788 42.5623 214.788 40.6718C214.788 39.4291 215.225 37.066 217.011 37.066C218.359 37.066 218.989 39.0265 219.409 40.4093L220.529 38.5714ZM225.641 45.9055C228.144 45.9055 229.79 44.1026 229.79 41.3895C229.79 38.6764 228.144 36.891 225.641 36.891C223.121 36.891 221.458 38.6764 221.458 41.3895C221.458 44.1026 223.121 45.9055 225.641 45.9055ZM225.886 45.7305C224.609 45.8005 223.716 44.1551 223.576 41.477C223.453 38.8339 224.154 37.1185 225.396 37.066C226.639 36.996 227.549 38.6064 227.672 41.302C227.812 43.9451 227.094 45.678 225.886 45.7305ZM233.248 44.4177V39.289C233.773 38.2563 234.684 37.4161 235.751 37.4161C236.767 37.4161 237.082 38.2388 237.082 39.7791V44.4527C237.047 45.3629 236.469 45.6079 236.189 45.7305H239.9C239.62 45.6079 239.007 45.3454 239.007 44.3302V40.1642C239.007 39.8842 238.99 39.6216 238.955 39.3765C239.462 38.3088 240.407 37.4161 241.475 37.4161C242.49 37.4161 242.805 38.2388 242.805 39.7791V44.4527C242.753 45.3629 242.193 45.6079 241.913 45.7305H245.641C245.343 45.6079 244.748 45.3454 244.731 44.3302V40.1642C244.731 37.8537 243.593 36.891 242.035 36.891C240.722 36.891 239.532 37.8012 238.902 39.0965C238.604 37.5561 237.589 36.891 236.294 36.891C235.051 36.891 233.896 37.7312 233.248 38.9389V36.891L230.518 37.5911C231.06 37.7137 231.323 38.2388 231.323 38.9915V44.3302C231.323 45.3454 230.693 45.6079 230.378 45.7305H234.193C233.896 45.6079 233.283 45.3629 233.248 44.4177Z" fill="url(#paint1_linear_1669_7198)"/>
<path d="M28.5749 32.3821V50.8626L33.4612 49.6097C32.4902 49.3904 32.0204 48.4507 32.0204 47.1038V42.2801C32.8661 43.1572 34.213 44.7546 36.2803 44.7546C40.8847 44.7546 43.2339 41.4657 43.2339 36.6733C43.2339 31.8183 40.8221 28.6234 36.8441 28.6234C34.7141 28.6234 33.0853 29.5944 32.0204 30.9099V28.6234L27.134 29.8763C28.0737 30.0955 28.5749 31.0352 28.5749 32.3821ZM32.0204 31.3485C32.7408 30.4714 33.7744 29.657 34.9021 29.657C38.5042 29.657 39.4439 34.4494 39.4439 37.5191C39.4439 40.4008 38.5982 43.8149 35.4972 43.8149C34.1503 43.8149 32.8974 42.7813 32.0204 41.8416V31.3485ZM44.2637 42.4994C45.5479 43.9402 48.3357 44.7546 50.8102 44.7546C53.5352 44.7546 56.9808 43.0319 56.9808 39.743C56.9808 36.5794 53.7858 35.765 52.5016 35.4204C49.3067 34.5747 47.6152 33.7916 47.6152 31.5364C47.6152 29.8136 48.9934 28.9679 50.4969 28.9679C52.5329 28.9679 54.0364 31.4737 54.287 33.3218L56.1664 30.0329C54.5376 28.8426 52.4076 28.6234 51.0921 28.6234C47.4899 28.6234 44.9841 30.722 44.9841 33.635C44.9841 36.83 47.7405 37.6757 49.9644 38.3648C52.1257 39.0539 54.1617 39.5237 54.1617 41.7163C54.1617 43.1885 53.1594 44.4414 50.9981 44.4414C48.179 44.4414 46.5502 40.714 46.1744 39.2418L44.2637 42.4994ZM73.0636 28.9366H68.3338C70.4011 29.2498 71.6854 31.0979 70.2132 34.2928L67.2375 40.8706L63.3535 32.0689C62.5391 30.2835 62.6331 29.5317 63.8547 28.9366H57.8407C58.4045 29.5317 58.9056 30.3775 59.5634 31.8496L65.4521 44.786C64.5124 47.1665 62.8523 48.2628 61.0356 48.2628C60.1586 48.2628 59.2189 47.9809 58.5611 47.5737L60.5031 50.8626C63.3535 50.9566 65.1076 46.3521 66.0786 44.2221L73.0636 28.9366ZM87.451 31.6304C86.0415 29.5631 84.0368 28.6234 81.2491 28.6234C76.0182 28.6234 73.6063 32.3195 73.6063 36.7673C73.6063 41.3718 75.9869 44.7546 81.4057 44.7546C84.538 44.7546 87.2631 42.9066 88.1401 40.2128C86.9499 41.9356 85.2271 43.4391 82.8152 43.4391C78.3048 43.4391 77.1771 38.772 77.1771 35.3891C77.1771 33.1652 77.9602 28.9366 81.1551 28.9366C83.567 28.9366 84.6946 32.4448 85.4464 34.9193L87.451 31.6304ZM90.5542 41.9356C90.5542 43.7523 89.4266 44.2221 88.8628 44.4414H95.6911C95.1586 44.2221 94.031 43.7523 93.9997 42.0295V32.9459C95.002 31.0979 96.7248 29.5631 98.7295 29.5631C100.64 29.5631 101.423 31.0352 101.423 34.1049V42.1548C101.329 43.7836 100.264 44.2221 99.7318 44.4414H106.56C105.996 44.2221 104.869 43.7523 104.869 41.9356V34.4807C104.869 30.3461 102.707 28.6234 99.7631 28.6234C97.3826 28.6234 95.2213 30.1582 93.9997 32.3195V22.5154L89.1133 23.7683C90.0843 23.9876 90.5542 24.9273 90.5542 26.2742V41.9356ZM122.124 40.2128C120.934 41.9356 119.211 43.4391 116.705 43.4391C113.135 43.4391 111.255 40.1815 111.193 35.8276H121.905V35.5144C121.905 31.5677 119.744 28.6234 115.296 28.6234C110.002 28.6234 107.559 32.3195 107.559 36.8613C107.559 41.3718 109.971 44.7546 115.39 44.7546C118.522 44.7546 121.247 42.9066 122.124 40.2128ZM111.193 35.5144C111.224 32.6953 112.038 28.9366 115.139 28.9366C118.428 28.9366 119.117 33.3218 119.117 35.5144H111.193ZM134.773 26.2742V31.0352C134.052 30.1582 132.486 28.6234 130.043 28.6234C125.846 28.6234 123.497 31.9123 123.497 36.7047C123.497 41.5597 125.908 44.7546 129.886 44.7546C132.048 44.7546 133.708 43.6583 134.773 42.2801L135.055 44.4414H139.596C138.625 44.0655 138.218 43.3451 138.218 41.3091V22.5154L133.332 23.7683C134.272 23.9876 134.773 24.9273 134.773 26.2742ZM134.773 41.8103C134.052 42.75 132.987 43.721 131.797 43.721C128.226 43.721 127.287 38.9286 127.287 36.0782C127.287 32.9772 128.101 29.5317 130.983 29.5317C132.58 29.5317 133.864 30.5341 134.773 31.5364V41.8103ZM155.099 40.2128C153.909 41.9356 152.186 43.4391 149.68 43.4391C146.109 43.4391 144.23 40.1815 144.167 35.8276H154.88V35.5144C154.88 31.5677 152.718 28.6234 148.27 28.6234C142.977 28.6234 140.534 32.3195 140.534 36.8613C140.534 41.3718 142.946 44.7546 148.364 44.7546C151.497 44.7546 154.222 42.9066 155.099 40.2128ZM144.167 35.5144C144.198 32.6953 145.013 28.9366 148.114 28.9366C151.403 28.9366 152.092 33.3218 152.092 35.5144H144.167ZM157.536 26.2742V38.8346C157.411 43.4391 158.538 44.7546 161.326 44.7546C163.112 44.7546 164.239 43.4078 164.803 41.8103C164.051 42.9379 163.362 43.627 162.485 43.627C160.731 43.627 160.95 41.6224 160.982 37.9263V22.5154L156.095 23.7683C157.066 23.9876 157.536 24.9273 157.536 26.2742ZM166.896 24.5201C166.896 25.6477 167.773 26.5247 168.964 26.5247C170.185 26.5247 171.062 25.6477 171.062 24.5201C171.062 23.3925 170.185 22.5154 168.964 22.5154C167.773 22.5154 166.896 23.3298 166.896 24.5201ZM170.686 42.0922V28.6234L165.8 29.8763C166.771 30.0955 167.241 31.0352 167.241 32.3821V41.9356C167.241 43.7523 166.113 44.2221 165.549 44.4414H172.378C171.845 44.2221 170.749 43.7836 170.686 42.0922ZM187.293 31.6304C185.883 29.5631 183.878 28.6234 181.091 28.6234C175.86 28.6234 173.448 32.3195 173.448 36.7673C173.448 41.3718 175.828 44.7546 181.247 44.7546C184.38 44.7546 187.105 42.9066 187.982 40.2128C186.791 41.9356 185.069 43.4391 182.657 43.4391C178.146 43.4391 177.019 38.772 177.019 35.3891C177.019 33.1652 177.802 28.9366 180.997 28.9366C183.409 28.9366 184.536 32.4448 185.288 34.9193L187.293 31.6304ZM188.673 42.4994C189.957 43.9402 192.745 44.7546 195.219 44.7546C197.945 44.7546 201.39 43.0319 201.39 39.743C201.39 36.5794 198.195 35.765 196.911 35.4204C193.716 34.5747 192.025 33.7916 192.025 31.5364C192.025 29.8136 193.403 28.9679 194.906 28.9679C196.942 28.9679 198.446 31.4737 198.696 33.3218L200.576 30.0329C198.947 28.8426 196.817 28.6234 195.501 28.6234C191.899 28.6234 189.393 30.722 189.393 33.635C189.393 36.83 192.15 37.6757 194.374 38.3648C196.535 39.0539 198.571 39.5237 198.571 41.7163C198.571 43.1885 197.569 44.4414 195.407 44.4414C192.588 44.4414 190.96 40.714 190.584 39.2418L188.673 42.4994Z" fill="url(#paint2_linear_1669_7198)"/>
<defs>
<linearGradient id="paint0_linear_1669_7198" x1="2.28848" y1="53.058" x2="81.312" y2="53.058" gradientUnits="userSpaceOnUse">
<stop stop-color="#EFDF81"/>
<stop offset="0.828125" stop-color="#EFDF81" stop-opacity="0"/>
<stop offset="0.9375" stop-color="#4385C0" stop-opacity="0"/>
<stop offset="1" stop-color="#4385C0" stop-opacity="0"/>
</linearGradient>
<linearGradient id="paint1_linear_1669_7198" x1="233.908" y1="44.7851" x2="220.586" y2="33.2324" gradientUnits="userSpaceOnUse">
<stop stop-color="#EFDF82"/>
<stop offset="1" stop-color="#E1BC4F"/>
</linearGradient>
<linearGradient id="paint2_linear_1669_7198" x1="150.385" y1="42.8736" x2="131.234" y2="3.47739" gradientUnits="userSpaceOnUse">
<stop stop-color="#EFDF82"/>
<stop offset="1" stop-color="#E1BC4F"/>
</linearGradient>
</defs>
</svg>
