<svg width="247" height="77" viewBox="0 0 247 77" fill="none" xmlns="http://www.w3.org/2000/svg">
<g style="mix-blend-mode:difference">
<circle cx="37.7912" cy="38.5451" r="36.7209" stroke="url(#paint0_linear_826_2836)" stroke-width="2"/>
<path d="M205.893 45.627C205.893 46.2571 206.383 46.7297 207.048 46.7297C207.731 46.7297 208.221 46.2571 208.221 45.627C208.221 44.9968 207.731 44.5242 207.048 44.5242C206.383 44.5242 205.893 44.9618 205.893 45.627ZM220.599 39.3956C219.812 38.2403 218.691 37.7152 217.134 37.7152C214.21 37.7152 212.863 39.7807 212.863 42.2662C212.863 44.8393 214.193 46.7297 217.221 46.7297C218.971 46.7297 220.494 45.697 220.984 44.1917C220.319 45.1544 219.357 45.9946 218.009 45.9946C215.488 45.9946 214.858 43.3865 214.858 41.496C214.858 40.2533 215.296 37.8902 217.081 37.8902C218.429 37.8902 219.059 39.8507 219.479 41.2335L220.599 39.3956ZM225.712 46.7297C228.215 46.7297 229.86 44.9268 229.86 42.2137C229.86 39.5006 228.215 37.7152 225.712 37.7152C223.191 37.7152 221.528 39.5006 221.528 42.2137C221.528 44.9268 223.191 46.7297 225.712 46.7297ZM225.957 46.5547C224.679 46.6247 223.786 44.9793 223.646 42.3012C223.524 39.6581 224.224 37.9427 225.467 37.8902C226.709 37.8202 227.62 39.4306 227.742 42.1262C227.882 44.7693 227.165 46.5022 225.957 46.5547ZM233.319 45.2419V40.1132C233.844 39.0805 234.754 38.2403 235.822 38.2403C236.837 38.2403 237.152 39.063 237.152 40.6033V45.2769C237.117 46.1871 236.539 46.4322 236.259 46.5547H239.97C239.69 46.4322 239.077 46.1696 239.077 45.1544V40.9884C239.077 40.7084 239.06 40.4458 239.025 40.2008C239.532 39.133 240.478 38.2403 241.545 38.2403C242.561 38.2403 242.876 39.063 242.876 40.6033V45.2769C242.823 46.1871 242.263 46.4322 241.983 46.5547H245.711C245.414 46.4322 244.819 46.1696 244.801 45.1544V40.9884C244.801 38.6779 243.663 37.7152 242.106 37.7152C240.793 37.7152 239.602 38.6254 238.972 39.9207C238.675 38.3803 237.66 37.7152 236.364 37.7152C235.121 37.7152 233.966 38.5554 233.319 39.7632V37.7152L230.588 38.4154C231.131 38.5379 231.393 39.063 231.393 39.8157V45.1544C231.393 46.1696 230.763 46.4322 230.448 46.5547H234.264C233.966 46.4322 233.354 46.1871 233.319 45.2419Z" fill="#F30000"/>
<path d="M28.6452 33.2063V51.6868L33.5315 50.4339C32.5605 50.2146 32.0907 49.2749 32.0907 47.9281V43.1043C32.9364 43.9814 34.2833 45.5789 36.3506 45.5789C40.955 45.5789 43.3043 42.29 43.3043 37.4976C43.3043 32.6425 40.8924 29.4476 36.9144 29.4476C34.7844 29.4476 33.1557 30.4186 32.0907 31.7342V29.4476L27.2043 30.7005C28.144 30.9198 28.6452 31.8594 28.6452 33.2063ZM32.0907 32.1727C32.8111 31.2956 33.8448 30.4812 34.9724 30.4812C38.5745 30.4812 39.5142 35.2736 39.5142 38.3433C39.5142 41.225 38.6685 44.6392 35.5675 44.6392C34.2206 44.6392 32.9677 43.6055 32.0907 42.6658V32.1727ZM44.334 43.3236C45.6182 44.7645 48.406 45.5789 50.8805 45.5789C53.6056 45.5789 57.0511 43.8561 57.0511 40.5672C57.0511 37.4036 53.8561 36.5892 52.5719 36.2446C49.377 35.3989 47.6855 34.6159 47.6855 32.3606C47.6855 30.6379 49.0637 29.7921 50.5672 29.7921C52.6032 29.7921 54.1067 32.298 54.3573 34.146L56.2367 30.8571C54.6079 29.6669 52.4779 29.4476 51.1624 29.4476C47.5602 29.4476 45.0544 31.5462 45.0544 34.4592C45.0544 37.6542 47.8108 38.4999 50.0348 39.189C52.196 39.8781 54.232 40.3479 54.232 42.5405C54.232 44.0127 53.2297 45.2656 51.0684 45.2656C48.2493 45.2656 46.6206 41.5382 46.2447 40.066L44.334 43.3236ZM73.1339 29.7608H68.4041C70.4714 30.074 71.7557 31.9221 70.2835 35.117L67.3078 41.6948L63.4238 32.8931C62.6094 31.1077 62.7034 30.356 63.925 29.7608H57.911C58.4748 30.356 58.976 31.2017 59.6337 32.6738L65.5224 45.6102C64.5827 47.9907 62.9226 49.087 61.1059 49.087C60.2289 49.087 59.2892 48.8051 58.6314 48.3979L60.5734 51.6868C63.4238 51.7808 65.1779 47.1763 66.1489 45.0464L73.1339 29.7608ZM87.5213 32.4546C86.1118 30.3873 84.1071 29.4476 81.3194 29.4476C76.0885 29.4476 73.6766 33.1437 73.6766 37.5915C73.6766 42.196 76.0572 45.5789 81.476 45.5789C84.6083 45.5789 87.3334 43.7308 88.2104 41.037C87.0202 42.7598 85.2974 44.2633 82.8856 44.2633C78.3751 44.2633 77.2474 39.5962 77.2474 36.2133C77.2474 33.9894 78.0305 29.7608 81.2254 29.7608C83.6373 29.7608 84.7649 33.269 85.5167 35.7435L87.5213 32.4546ZM90.6245 42.7598C90.6245 44.5765 89.4969 45.0464 88.9331 45.2656H95.7614C95.229 45.0464 94.1013 44.5765 94.07 42.8538V33.7701C95.0723 31.9221 96.7951 30.3873 98.7998 30.3873C100.71 30.3873 101.494 31.8594 101.494 34.9291V42.9791C101.4 44.6078 100.335 45.0464 99.8021 45.2656H106.63C106.067 45.0464 104.939 44.5765 104.939 42.7598V35.305C104.939 31.1703 102.778 29.4476 99.8334 29.4476C97.4529 29.4476 95.2916 30.9824 94.07 33.1437V23.3396L89.1837 24.5925C90.1547 24.8118 90.6245 25.7515 90.6245 27.0984V42.7598ZM122.194 41.037C121.004 42.7598 119.281 44.2633 116.776 44.2633C113.205 44.2633 111.325 41.0057 111.263 36.6518H121.975V36.3386C121.975 32.3919 119.814 29.4476 115.366 29.4476C110.073 29.4476 107.629 33.1437 107.629 37.6855C107.629 42.196 110.041 45.5789 115.46 45.5789C118.592 45.5789 121.317 43.7308 122.194 41.037ZM111.263 36.3386C111.294 33.5196 112.109 29.7608 115.21 29.7608C118.498 29.7608 119.188 34.146 119.188 36.3386H111.263ZM134.843 27.0984V31.8594C134.123 30.9824 132.556 29.4476 130.113 29.4476C125.916 29.4476 123.567 32.7365 123.567 37.5289C123.567 42.3839 125.979 45.5789 129.957 45.5789C132.118 45.5789 133.778 44.4826 134.843 43.1043L135.125 45.2656H139.667C138.696 44.8898 138.289 44.1693 138.289 42.1333V23.3396L133.402 24.5925C134.342 24.8118 134.843 25.7515 134.843 27.0984ZM134.843 42.6345C134.123 43.5742 133.058 44.5452 131.867 44.5452C128.297 44.5452 127.357 39.7528 127.357 36.9024C127.357 33.8015 128.171 30.356 131.053 30.356C132.65 30.356 133.935 31.3583 134.843 32.3606V42.6345ZM155.169 41.037C153.979 42.7598 152.256 44.2633 149.75 44.2633C146.179 44.2633 144.3 41.0057 144.237 36.6518H154.95V36.3386C154.95 32.3919 152.789 29.4476 148.341 29.4476C143.047 29.4476 140.604 33.1437 140.604 37.6855C140.604 42.196 143.016 45.5789 148.435 45.5789C151.567 45.5789 154.292 43.7308 155.169 41.037ZM144.237 36.3386C144.269 33.5196 145.083 29.7608 148.184 29.7608C151.473 29.7608 152.162 34.146 152.162 36.3386H144.237ZM157.606 27.0984V39.6588C157.481 44.2633 158.609 45.5789 161.396 45.5789C163.182 45.5789 164.31 44.232 164.873 42.6345C164.122 43.7621 163.432 44.4512 162.555 44.4512C160.801 44.4512 161.021 42.4466 161.052 38.7505V23.3396L156.166 24.5925C157.137 24.8118 157.606 25.7515 157.606 27.0984ZM166.967 25.3443C166.967 26.4719 167.844 27.349 169.034 27.349C170.255 27.349 171.133 26.4719 171.133 25.3443C171.133 24.2167 170.255 23.3396 169.034 23.3396C167.844 23.3396 166.967 24.154 166.967 25.3443ZM170.757 42.9164V29.4476L165.87 30.7005C166.841 30.9198 167.311 31.8594 167.311 33.2063V42.7598C167.311 44.5765 166.184 45.0464 165.62 45.2656H172.448C171.916 45.0464 170.819 44.6078 170.757 42.9164ZM187.363 32.4546C185.953 30.3873 183.949 29.4476 181.161 29.4476C175.93 29.4476 173.518 33.1437 173.518 37.5915C173.518 42.196 175.899 45.5789 181.318 45.5789C184.45 45.5789 187.175 43.7308 188.052 41.037C186.862 42.7598 185.139 44.2633 182.727 44.2633C178.217 44.2633 177.089 39.5962 177.089 36.2133C177.089 33.9894 177.872 29.7608 181.067 29.7608C183.479 29.7608 184.606 33.269 185.358 35.7435L187.363 32.4546ZM188.743 43.3236C190.028 44.7645 192.815 45.5789 195.29 45.5789C198.015 45.5789 201.46 43.8561 201.46 40.5672C201.46 37.4036 198.265 36.5892 196.981 36.2446C193.786 35.3989 192.095 34.6159 192.095 32.3606C192.095 30.6379 193.473 29.7921 194.977 29.7921C197.013 29.7921 198.516 32.298 198.767 34.146L200.646 30.8571C199.017 29.6669 196.887 29.4476 195.572 29.4476C191.97 29.4476 189.464 31.5462 189.464 34.4592C189.464 37.6542 192.22 38.4999 194.444 39.189C196.605 39.8781 198.641 40.3479 198.641 42.5405C198.641 44.0127 197.639 45.2656 195.478 45.2656C192.659 45.2656 191.03 41.5382 190.654 40.066L188.743 43.3236Z" fill="#F30000"/>
</g>
<defs>
<linearGradient id="paint0_linear_826_2836" x1="71.2505" y1="48.4709" x2="19.7994" y2="40.3278" gradientUnits="userSpaceOnUse">
<stop offset="0.0104167" stop-color="#F30000" stop-opacity="0"/>
<stop offset="0.515625" stop-color="#F30000"/>
<stop offset="1" stop-color="#F30000"/>
</linearGradient>
</defs>
</svg>
