<svg width="218" height="40" viewBox="0 0 218 40" fill="none" xmlns="http://www.w3.org/2000/svg">
<path d="M51.6333 15.2667V29.5362L55.4062 28.5687C54.6564 28.3994 54.2937 27.6739 54.2937 26.6339V22.9093C54.9467 23.5865 55.9867 24.82 57.5829 24.82C61.1382 24.82 62.9521 22.2805 62.9521 18.5801C62.9521 14.8313 61.0898 12.3644 58.0182 12.3644C56.3736 12.3644 55.116 13.1142 54.2937 14.13V12.3644L50.5207 13.3318C51.2463 13.5011 51.6333 14.2267 51.6333 15.2667ZM54.2937 14.4686C54.8499 13.7914 55.6481 13.1625 56.5187 13.1625C59.3001 13.1625 60.0256 16.8629 60.0256 19.2331C60.0256 21.4582 59.3726 24.0944 56.9783 24.0944C55.9383 24.0944 54.9709 23.2963 54.2937 22.5707V14.4686ZM63.7472 23.0786C64.7388 24.1912 66.8913 24.82 68.802 24.82C70.9061 24.82 73.5665 23.4898 73.5665 20.9503C73.5665 18.5075 71.0996 17.8787 70.108 17.6127C67.6411 16.9597 66.335 16.355 66.335 14.6137C66.335 13.2835 67.3992 12.6305 68.5601 12.6305C70.1322 12.6305 71.2931 14.5653 71.4866 15.9923L72.9377 13.4528C71.6801 12.5337 70.0354 12.3644 69.0196 12.3644C66.2383 12.3644 64.3035 13.9849 64.3035 16.2341C64.3035 18.701 66.4318 19.354 68.149 19.8861C69.8178 20.4182 71.3898 20.781 71.3898 22.474C71.3898 23.6107 70.6159 24.5781 68.9471 24.5781C66.7704 24.5781 65.5127 21.7 65.2225 20.5633L63.7472 23.0786ZM85.9847 12.6063H82.3327C83.9289 12.8481 84.9205 14.2751 83.7838 16.742L81.4862 21.821L78.4872 15.0248C77.8583 13.6463 77.9309 13.0658 78.8741 12.6063H74.2305C74.6658 13.0658 75.0528 13.7188 75.5607 14.8555L80.1076 24.8442C79.382 26.6823 78.1002 27.5288 76.6974 27.5288C76.0202 27.5288 75.2947 27.3111 74.7868 26.9967L76.2863 29.5362C78.4872 29.6087 79.8415 26.0534 80.5913 24.4088L85.9847 12.6063ZM97.0938 14.6862C96.0054 13.09 94.4576 12.3644 92.305 12.3644C88.2661 12.3644 86.4038 15.2183 86.4038 18.6527C86.4038 22.2079 88.2419 24.82 92.426 24.82C94.8445 24.82 96.9487 23.393 97.6259 21.3131C96.7068 22.6433 95.3766 23.8042 93.5143 23.8042C90.0316 23.8042 89.1609 20.2005 89.1609 17.5885C89.1609 15.8713 89.7656 12.6063 92.2325 12.6063C94.0948 12.6063 94.9655 15.3151 95.5459 17.2257L97.0938 14.6862ZM99.4899 22.6433C99.4899 24.046 98.6192 24.4088 98.1838 24.5781H103.456C103.045 24.4088 102.174 24.046 102.15 22.7158V15.702C102.924 14.2751 104.254 13.09 105.802 13.09C107.278 13.09 107.882 14.2267 107.882 16.5969V22.8126C107.81 24.0702 106.987 24.4088 106.576 24.5781H111.849C111.413 24.4088 110.543 24.046 110.543 22.6433V16.8871C110.543 13.6946 108.874 12.3644 106.6 12.3644C104.762 12.3644 103.094 13.5495 102.15 15.2183V7.64823L98.3773 8.61566C99.1271 8.78496 99.4899 9.51052 99.4899 10.5505V22.6433ZM123.866 21.3131C122.947 22.6433 121.617 23.8042 119.682 23.8042C116.925 23.8042 115.474 21.2889 115.425 17.9271H123.697V17.6852C123.697 14.6379 122.028 12.3644 118.594 12.3644C114.506 12.3644 112.62 15.2183 112.62 18.7252C112.62 22.2079 114.482 24.82 118.666 24.82C121.085 24.82 123.189 23.393 123.866 21.3131ZM115.425 17.6852C115.45 15.5085 116.079 12.6063 118.473 12.6063C121.012 12.6063 121.544 15.9923 121.544 17.6852H115.425ZM133.633 10.5505V14.2267C133.076 13.5495 131.867 12.3644 129.981 12.3644C126.74 12.3644 124.926 14.9039 124.926 18.6043C124.926 22.3531 126.788 24.82 129.86 24.82C131.529 24.82 132.81 23.9735 133.633 22.9093L133.85 24.5781H137.357C136.608 24.2879 136.293 23.7316 136.293 22.1596V7.64823L132.52 8.61566C133.246 8.78496 133.633 9.51052 133.633 10.5505ZM133.633 22.5465C133.076 23.2721 132.254 24.0219 131.335 24.0219C128.578 24.0219 127.852 20.3215 127.852 18.1206C127.852 15.7262 128.481 13.0658 130.706 13.0658C131.94 13.0658 132.931 13.8397 133.633 14.6137V22.5465ZM149.327 21.3131C148.408 22.6433 147.078 23.8042 145.143 23.8042C142.386 23.8042 140.935 21.2889 140.886 17.9271H149.158V17.6852C149.158 14.6379 147.489 12.3644 144.055 12.3644C139.967 12.3644 138.081 15.2183 138.081 18.7252C138.081 22.2079 139.943 24.82 144.127 24.82C146.546 24.82 148.65 23.393 149.327 21.3131ZM140.886 17.6852C140.911 15.5085 141.539 12.6063 143.934 12.6063C146.473 12.6063 147.005 15.9923 147.005 17.6852H140.886ZM151.209 10.5505V20.2489C151.112 23.8042 151.983 24.82 154.136 24.82C155.514 24.82 156.385 23.78 156.82 22.5465C156.24 23.4172 155.708 23.9493 155.03 23.9493C153.676 23.9493 153.845 22.4014 153.87 19.5475V7.64823L150.097 8.61566C150.846 8.78496 151.209 9.51052 151.209 10.5505ZM158.436 9.19611C158.436 10.0668 159.114 10.744 160.033 10.744C160.976 10.744 161.653 10.0668 161.653 9.19611C161.653 8.32543 160.976 7.64823 160.033 7.64823C159.114 7.64823 158.436 8.27706 158.436 9.19611ZM161.363 22.7642V12.3644L157.59 13.3318C158.34 13.5011 158.703 14.2267 158.703 15.2667V22.6433C158.703 24.046 157.832 24.4088 157.397 24.5781H162.669C162.258 24.4088 161.411 24.0702 161.363 22.7642ZM174.185 14.6862C173.097 13.09 171.549 12.3644 169.397 12.3644C165.358 12.3644 163.495 15.2183 163.495 18.6527C163.495 22.2079 165.333 24.82 169.517 24.82C171.936 24.82 174.04 23.393 174.717 21.3131C173.798 22.6433 172.468 23.8042 170.606 23.8042C167.123 23.8042 166.252 20.2005 166.252 17.5885C166.252 15.8713 166.857 12.6063 169.324 12.6063C171.186 12.6063 172.057 15.3151 172.637 17.2257L174.185 14.6862ZM175.251 23.0786C176.243 24.1912 178.395 24.82 180.306 24.82C182.41 24.82 185.07 23.4898 185.07 20.9503C185.07 18.5075 182.604 17.8787 181.612 17.6127C179.145 16.9597 177.839 16.355 177.839 14.6137C177.839 13.2835 178.903 12.6305 180.064 12.6305C181.636 12.6305 182.797 14.5653 182.99 15.9923L184.442 13.4528C183.184 12.5337 181.539 12.3644 180.524 12.3644C177.742 12.3644 175.807 13.9849 175.807 16.2341C175.807 18.701 177.936 19.354 179.653 19.8861C181.322 20.4182 182.894 20.781 182.894 22.474C182.894 23.6107 182.12 24.5781 180.451 24.5781C178.274 24.5781 177.017 21.7 176.726 20.5633L175.251 23.0786Z" fill="#7100E1"/>
<path d="M186.412 23.6587C186.412 24.1452 186.791 24.5102 187.304 24.5102C187.832 24.5102 188.21 24.1452 188.21 23.6587C188.21 23.1721 187.832 22.8072 187.304 22.8072C186.791 22.8072 186.412 23.1451 186.412 23.6587ZM197.768 18.8472C197.16 17.9552 196.295 17.5497 195.092 17.5497C192.835 17.5497 191.794 19.1445 191.794 21.0637C191.794 23.0505 192.821 24.5102 195.159 24.5102C196.511 24.5102 197.687 23.7127 198.065 22.5504C197.552 23.2938 196.808 23.9425 195.768 23.9425C193.821 23.9425 193.335 21.9287 193.335 20.469C193.335 19.5094 193.673 17.6848 195.051 17.6848C196.092 17.6848 196.579 19.1986 196.903 20.2663L197.768 18.8472ZM201.715 24.5102C203.648 24.5102 204.919 23.1181 204.919 21.0232C204.919 18.9283 203.648 17.5497 201.715 17.5497C199.769 17.5497 198.485 18.9283 198.485 21.0232C198.485 23.1181 199.769 24.5102 201.715 24.5102ZM201.905 24.375C200.918 24.4291 200.229 23.1586 200.121 21.0907C200.026 19.0499 200.567 17.7254 201.526 17.6848C202.486 17.6308 203.189 18.8742 203.283 20.9556C203.391 22.9964 202.837 24.3345 201.905 24.375ZM207.589 23.3613V19.4013C207.994 18.6039 208.697 17.9552 209.522 17.9552C210.305 17.9552 210.549 18.5904 210.549 19.7797V23.3884C210.522 24.0912 210.076 24.2804 209.859 24.375H212.725C212.508 24.2804 212.035 24.0777 212.035 23.2938V20.0771C212.035 19.8608 212.022 19.6581 211.995 19.4689C212.387 18.6444 213.117 17.9552 213.941 17.9552C214.725 17.9552 214.968 18.5904 214.968 19.7797V23.3884C214.928 24.0912 214.495 24.2804 214.279 24.375H217.158C216.928 24.2804 216.469 24.0777 216.455 23.2938V20.0771C216.455 18.293 215.577 17.5497 214.374 17.5497C213.36 17.5497 212.441 18.2525 211.954 19.2526C211.725 18.0633 210.941 17.5497 209.941 17.5497C208.981 17.5497 208.089 18.1984 207.589 19.131V17.5497L205.48 18.0903C205.899 18.1849 206.102 18.5904 206.102 19.1715V23.2938C206.102 24.0777 205.616 24.2804 205.372 24.375H208.319C208.089 24.2804 207.616 24.0912 207.589 23.3613Z" fill="#7100E1"/>
<path fill-rule="evenodd" clip-rule="evenodd" d="M20 40C31.0457 40 40 31.0457 40 20C40 8.9543 31.0457 0 20 0C8.9543 0 0 8.9543 0 20C0 31.0457 8.9543 40 20 40ZM13.7486 30.5174V13.0377C13.7486 11.7637 13.2746 10.8749 12.3858 10.6675L17.0075 9.48248V11.6452C18.0148 10.4009 19.5554 9.48248 21.57 9.48248C25.3326 9.48248 27.6139 12.5044 27.6139 17.0965C27.6139 21.6294 25.3919 24.7402 21.0368 24.7402C19.2288 24.7402 18.0034 23.4484 17.1966 22.5979C17.1308 22.5286 17.0678 22.4622 17.0075 22.3997V26.9622C17.0075 28.2361 17.4519 29.1249 18.3704 29.3323L13.7486 30.5174ZM19.7332 10.4602C18.6666 10.4602 17.6889 11.2305 17.0075 12.06V21.9849C17.8371 22.8737 19.0221 23.8514 20.2961 23.8514C23.2291 23.8514 24.029 20.6221 24.029 17.8964C24.029 14.993 23.1402 10.4602 19.7332 10.4602Z" fill="#7100E1"/>
</svg>
