<svg width="246" height="77" viewBox="0 0 246 77" fill="none" xmlns="http://www.w3.org/2000/svg">
<path d="M37.9533 75.266C58.2337 75.266 74.6742 58.8255 74.6742 38.5451C74.6742 18.2647 58.2337 1.82422 37.9533 1.82422C17.6729 1.82422 1.23242 18.2647 1.23242 38.5451C1.23242 58.8255 17.6729 75.266 37.9533 75.266Z" stroke="url(#paint0_linear_1597_6867)" stroke-width="2"/>
<path d="M205.055 45.627C205.055 46.2571 205.545 46.7297 206.21 46.7297C206.893 46.7297 207.383 46.2571 207.383 45.627C207.383 44.9968 206.893 44.5242 206.21 44.5242C205.545 44.5242 205.055 44.9618 205.055 45.627ZM219.761 39.3956C218.974 38.2403 217.854 37.7152 216.296 37.7152C213.373 37.7152 212.025 39.7807 212.025 42.2662C212.025 44.8393 213.355 46.7297 216.383 46.7297C218.134 46.7297 219.656 45.697 220.147 44.1917C219.481 45.1544 218.519 45.9946 217.171 45.9946C214.65 45.9946 214.02 43.3865 214.02 41.496C214.02 40.2533 214.458 37.8902 216.243 37.8902C217.591 37.8902 218.221 39.8507 218.641 41.2335L219.761 39.3956ZM224.874 46.7297C227.377 46.7297 229.022 44.9268 229.022 42.2137C229.022 39.5006 227.377 37.7152 224.874 37.7152C222.353 37.7152 220.69 39.5006 220.69 42.2137C220.69 44.9268 222.353 46.7297 224.874 46.7297ZM225.119 46.5547C223.841 46.6247 222.948 44.9793 222.808 42.3012C222.686 39.6581 223.386 37.9427 224.629 37.8902C225.872 37.8202 226.782 39.4306 226.904 42.1262C227.044 44.7693 226.327 46.5022 225.119 46.5547ZM232.481 45.2419V40.1132C233.006 39.0805 233.916 38.2403 234.984 38.2403C235.999 38.2403 236.314 39.063 236.314 40.6033V45.2769C236.279 46.1871 235.701 46.4322 235.421 46.5547H239.132C238.852 46.4322 238.239 46.1696 238.239 45.1544V40.9884C238.239 40.7084 238.222 40.4458 238.187 40.2008C238.695 39.133 239.64 38.2403 240.708 38.2403C241.723 38.2403 242.038 39.063 242.038 40.6033V45.2769C241.985 46.1871 241.425 46.4322 241.145 46.5547H244.873C244.576 46.4322 243.981 46.1696 243.963 45.1544V40.9884C243.963 38.6779 242.825 37.7152 241.268 37.7152C239.955 37.7152 238.765 38.6254 238.134 39.9207C237.837 38.3803 236.822 37.7152 235.526 37.7152C234.284 37.7152 233.128 38.5554 232.481 39.7632V37.7152L229.75 38.4154C230.293 38.5379 230.555 39.063 230.555 39.8157V45.1544C230.555 46.1696 229.925 46.4322 229.61 46.5547H233.426C233.128 46.4322 232.516 46.1871 232.481 45.2419Z" fill="#F402B1"/>
<path d="M27.8071 33.2063V51.6868L32.6934 50.4339C31.7224 50.2146 31.2526 49.2749 31.2526 47.9281V43.1043C32.0983 43.9814 33.4452 45.5789 35.5125 45.5789C40.117 45.5789 42.4662 42.29 42.4662 37.4976C42.4662 32.6425 40.0543 29.4476 36.0763 29.4476C33.9464 29.4476 32.3176 30.4186 31.2526 31.7342V29.4476L26.3662 30.7005C27.3059 30.9198 27.8071 31.8594 27.8071 33.2063ZM31.2526 32.1727C31.973 31.2956 33.0067 30.4812 34.1343 30.4812C37.7364 30.4812 38.6761 35.2736 38.6761 38.3433C38.6761 41.225 37.8304 44.6392 34.7294 44.6392C33.3825 44.6392 32.1296 43.6055 31.2526 42.6658V32.1727ZM43.4959 43.3236C44.7801 44.7645 47.5679 45.5789 50.0424 45.5789C52.7675 45.5789 56.213 43.8561 56.213 40.5672C56.213 37.4036 53.018 36.5892 51.7338 36.2446C48.5389 35.3989 46.8474 34.6159 46.8474 32.3606C46.8474 30.6379 48.2257 29.7921 49.7291 29.7921C51.7651 29.7921 53.2686 32.298 53.5192 34.146L55.3986 30.8571C53.7698 29.6669 51.6398 29.4476 50.3243 29.4476C46.7222 29.4476 44.2163 31.5462 44.2163 34.4592C44.2163 37.6542 46.9727 38.4999 49.1967 39.189C51.3579 39.8781 53.3939 40.3479 53.3939 42.5405C53.3939 44.0127 52.3916 45.2656 50.2303 45.2656C47.4113 45.2656 45.7825 41.5382 45.4066 40.066L43.4959 43.3236ZM72.2958 29.7608H67.566C69.6333 30.074 70.9176 31.9221 69.4454 35.117L66.4697 41.6948L62.5857 32.8931C61.7713 31.1077 61.8653 30.356 63.0869 29.7608H57.0729C57.6367 30.356 58.1379 31.2017 58.7956 32.6738L64.6843 45.6102C63.7447 47.9907 62.0845 49.087 60.2678 49.087C59.3908 49.087 58.4511 48.8051 57.7933 48.3979L59.7353 51.6868C62.5857 51.7808 64.3398 47.1763 65.3108 45.0464L72.2958 29.7608ZM86.6832 32.4546C85.2737 30.3873 83.2691 29.4476 80.4813 29.4476C75.2504 29.4476 72.8386 33.1437 72.8386 37.5915C72.8386 42.196 75.2191 45.5789 80.6379 45.5789C83.7702 45.5789 86.4953 43.7308 87.3724 41.037C86.1821 42.7598 84.4593 44.2633 82.0475 44.2633C77.537 44.2633 76.4094 39.5962 76.4094 36.2133C76.4094 33.9894 77.1924 29.7608 80.3874 29.7608C82.7992 29.7608 83.9268 33.269 84.6786 35.7435L86.6832 32.4546ZM89.7864 42.7598C89.7864 44.5765 88.6588 45.0464 88.095 45.2656H94.9234C94.3909 45.0464 93.2632 44.5765 93.2319 42.8538V33.7701C94.2343 31.9221 95.957 30.3873 97.9617 30.3873C99.8724 30.3873 100.656 31.8594 100.656 34.9291V42.9791C100.562 44.6078 99.4965 45.0464 98.964 45.2656H105.793C105.229 45.0464 104.101 44.5765 104.101 42.7598V35.305C104.101 31.1703 101.94 29.4476 98.9953 29.4476C96.6148 29.4476 94.4535 30.9824 93.2319 33.1437V23.3396L88.3456 24.5925C89.3166 24.8118 89.7864 25.7515 89.7864 27.0984V42.7598ZM121.357 41.037C120.166 42.7598 118.444 44.2633 115.938 44.2633C112.367 44.2633 110.488 41.0057 110.425 36.6518H121.137V36.3386C121.137 32.3919 118.976 29.4476 114.528 29.4476C109.235 29.4476 106.791 33.1437 106.791 37.6855C106.791 42.196 109.203 45.5789 114.622 45.5789C117.754 45.5789 120.48 43.7308 121.357 41.037ZM110.425 36.3386C110.456 33.5196 111.271 29.7608 114.372 29.7608C117.661 29.7608 118.35 34.146 118.35 36.3386H110.425ZM134.005 27.0984V31.8594C133.285 30.9824 131.719 29.4476 129.275 29.4476C125.078 29.4476 122.729 32.7365 122.729 37.5289C122.729 42.3839 125.141 45.5789 129.119 45.5789C131.28 45.5789 132.94 44.4826 134.005 43.1043L134.287 45.2656H138.829C137.858 44.8898 137.451 44.1693 137.451 42.1333V23.3396L132.564 24.5925C133.504 24.8118 134.005 25.7515 134.005 27.0984ZM134.005 42.6345C133.285 43.5742 132.22 44.5452 131.029 44.5452C127.459 44.5452 126.519 39.7528 126.519 36.9024C126.519 33.8015 127.333 30.356 130.215 30.356C131.813 30.356 133.097 31.3583 134.005 32.3606V42.6345ZM154.331 41.037C153.141 42.7598 151.418 44.2633 148.912 44.2633C145.342 44.2633 143.462 41.0057 143.4 36.6518H154.112V36.3386C154.112 32.3919 151.951 29.4476 147.503 29.4476C142.209 29.4476 139.766 33.1437 139.766 37.6855C139.766 42.196 142.178 45.5789 147.597 45.5789C150.729 45.5789 153.454 43.7308 154.331 41.037ZM143.4 36.3386C143.431 33.5196 144.245 29.7608 147.346 29.7608C150.635 29.7608 151.324 34.146 151.324 36.3386H143.4ZM156.769 27.0984V39.6588C156.643 44.2633 157.771 45.5789 160.559 45.5789C162.344 45.5789 163.472 44.232 164.035 42.6345C163.284 43.7621 162.595 44.4512 161.718 44.4512C159.963 44.4512 160.183 42.4466 160.214 38.7505V23.3396L155.328 24.5925C156.299 24.8118 156.769 25.7515 156.769 27.0984ZM166.129 25.3443C166.129 26.4719 167.006 27.349 168.196 27.349C169.418 27.349 170.295 26.4719 170.295 25.3443C170.295 24.2167 169.418 23.3396 168.196 23.3396C167.006 23.3396 166.129 24.154 166.129 25.3443ZM169.919 42.9164V29.4476L165.032 30.7005C166.003 30.9198 166.473 31.8594 166.473 33.2063V42.7598C166.473 44.5765 165.346 45.0464 164.782 45.2656H171.61C171.078 45.0464 169.981 44.6078 169.919 42.9164ZM186.525 32.4546C185.115 30.3873 183.111 29.4476 180.323 29.4476C175.092 29.4476 172.68 33.1437 172.68 37.5915C172.68 42.196 175.061 45.5789 180.48 45.5789C183.612 45.5789 186.337 43.7308 187.214 41.037C186.024 42.7598 184.301 44.2633 181.889 44.2633C177.379 44.2633 176.251 39.5962 176.251 36.2133C176.251 33.9894 177.034 29.7608 180.229 29.7608C182.641 29.7608 183.769 33.269 184.52 35.7435L186.525 32.4546ZM187.905 43.3236C189.19 44.7645 191.977 45.5789 194.452 45.5789C197.177 45.5789 200.622 43.8561 200.622 40.5672C200.622 37.4036 197.428 36.5892 196.143 36.2446C192.948 35.3989 191.257 34.6159 191.257 32.3606C191.257 30.6379 192.635 29.7921 194.139 29.7921C196.175 29.7921 197.678 32.298 197.929 34.146L199.808 30.8571C198.179 29.6669 196.049 29.4476 194.734 29.4476C191.132 29.4476 188.626 31.5462 188.626 34.4592C188.626 37.6542 191.382 38.4999 193.606 39.189C195.767 39.8781 197.803 40.3479 197.803 42.5405C197.803 44.0127 196.801 45.2656 194.64 45.2656C191.821 45.2656 190.192 41.5382 189.816 40.066L187.905 43.3236Z" fill="#F402B1"/>
<defs>
<linearGradient id="paint0_linear_1597_6867" x1="71.4126" y1="48.4709" x2="19.9615" y2="40.3278" gradientUnits="userSpaceOnUse">
<stop offset="0.0104167" stop-color="#F402B1" stop-opacity="0"/>
<stop offset="0.515625" stop-color="#F402B1"/>
<stop offset="1" stop-color="#F402B1"/>
</linearGradient>
</defs>
</svg>
