<svg width="316" height="154" viewBox="0 0 316 154" fill="none" xmlns="http://www.w3.org/2000/svg">
<g filter="url(#filter0_dddddd_826_2893)">
<circle cx="72.7912" cy="38.5451" r="36.7209" stroke="url(#paint0_linear_826_2893)" stroke-width="2"/>
<path d="M240.893 45.627C240.893 46.2571 241.383 46.7297 242.048 46.7297C242.731 46.7297 243.221 46.2571 243.221 45.627C243.221 44.9968 242.731 44.5242 242.048 44.5242C241.383 44.5242 240.893 44.9618 240.893 45.627ZM255.599 39.3956C254.812 38.2403 253.691 37.7152 252.134 37.7152C249.21 37.7152 247.863 39.7807 247.863 42.2662C247.863 44.8393 249.193 46.7297 252.221 46.7297C253.971 46.7297 255.494 45.697 255.984 44.1917C255.319 45.1544 254.357 45.9946 253.009 45.9946C250.488 45.9946 249.858 43.3865 249.858 41.496C249.858 40.2533 250.296 37.8902 252.081 37.8902C253.429 37.8902 254.059 39.8507 254.479 41.2335L255.599 39.3956ZM260.712 46.7297C263.215 46.7297 264.86 44.9268 264.86 42.2137C264.86 39.5006 263.215 37.7152 260.712 37.7152C258.191 37.7152 256.528 39.5006 256.528 42.2137C256.528 44.9268 258.191 46.7297 260.712 46.7297ZM260.957 46.5547C259.679 46.6247 258.786 44.9793 258.646 42.3012C258.524 39.6581 259.224 37.9427 260.467 37.8902C261.709 37.8202 262.62 39.4306 262.742 42.1262C262.882 44.7693 262.165 46.5022 260.957 46.5547ZM268.319 45.2419V40.1132C268.844 39.0805 269.754 38.2403 270.822 38.2403C271.837 38.2403 272.152 39.063 272.152 40.6033V45.2769C272.117 46.1871 271.539 46.4322 271.259 46.5547H274.97C274.69 46.4322 274.077 46.1696 274.077 45.1544V40.9884C274.077 40.7084 274.06 40.4458 274.025 40.2008C274.532 39.133 275.478 38.2403 276.545 38.2403C277.561 38.2403 277.876 39.063 277.876 40.6033V45.2769C277.823 46.1871 277.263 46.4322 276.983 46.5547H280.711C280.414 46.4322 279.819 46.1696 279.801 45.1544V40.9884C279.801 38.6779 278.663 37.7152 277.106 37.7152C275.793 37.7152 274.602 38.6254 273.972 39.9207C273.675 38.3803 272.66 37.7152 271.364 37.7152C270.121 37.7152 268.966 38.5554 268.319 39.7632V37.7152L265.588 38.4154C266.131 38.5379 266.393 39.063 266.393 39.8157V45.1544C266.393 46.1696 265.763 46.4322 265.448 46.5547H269.264C268.966 46.4322 268.354 46.1871 268.319 45.2419Z" fill="#00FFF0"/>
<path d="M63.6452 33.2063V51.6868L68.5315 50.4339C67.5605 50.2146 67.0907 49.2749 67.0907 47.9281V43.1043C67.9364 43.9814 69.2833 45.5789 71.3506 45.5789C75.955 45.5789 78.3043 42.29 78.3043 37.4976C78.3043 32.6425 75.8924 29.4476 71.9144 29.4476C69.7844 29.4476 68.1557 30.4186 67.0907 31.7342V29.4476L62.2043 30.7005C63.144 30.9198 63.6452 31.8594 63.6452 33.2063ZM67.0907 32.1727C67.8111 31.2956 68.8448 30.4812 69.9724 30.4812C73.5745 30.4812 74.5142 35.2736 74.5142 38.3433C74.5142 41.225 73.6685 44.6392 70.5675 44.6392C69.2206 44.6392 67.9677 43.6055 67.0907 42.6658V32.1727ZM79.334 43.3236C80.6182 44.7645 83.406 45.5789 85.8805 45.5789C88.6056 45.5789 92.0511 43.8561 92.0511 40.5672C92.0511 37.4036 88.8561 36.5892 87.5719 36.2446C84.377 35.3989 82.6855 34.6159 82.6855 32.3606C82.6855 30.6379 84.0637 29.7921 85.5672 29.7921C87.6032 29.7921 89.1067 32.298 89.3573 34.146L91.2367 30.8571C89.6079 29.6669 87.4779 29.4476 86.1624 29.4476C82.5602 29.4476 80.0544 31.5462 80.0544 34.4592C80.0544 37.6542 82.8108 38.4999 85.0348 39.189C87.196 39.8781 89.232 40.3479 89.232 42.5405C89.232 44.0127 88.2297 45.2656 86.0684 45.2656C83.2493 45.2656 81.6206 41.5382 81.2447 40.066L79.334 43.3236ZM108.134 29.7608H103.404C105.471 30.074 106.756 31.9221 105.284 35.117L102.308 41.6948L98.4238 32.8931C97.6094 31.1077 97.7034 30.356 98.925 29.7608H92.911C93.4748 30.356 93.976 31.2017 94.6337 32.6738L100.522 45.6102C99.5827 47.9907 97.9226 49.087 96.1059 49.087C95.2289 49.087 94.2892 48.8051 93.6314 48.3979L95.5734 51.6868C98.4238 51.7808 100.178 47.1763 101.149 45.0464L108.134 29.7608ZM122.521 32.4546C121.112 30.3873 119.107 29.4476 116.319 29.4476C111.089 29.4476 108.677 33.1437 108.677 37.5915C108.677 42.196 111.057 45.5789 116.476 45.5789C119.608 45.5789 122.333 43.7308 123.21 41.037C122.02 42.7598 120.297 44.2633 117.886 44.2633C113.375 44.2633 112.247 39.5962 112.247 36.2133C112.247 33.9894 113.031 29.7608 116.225 29.7608C118.637 29.7608 119.765 33.269 120.517 35.7435L122.521 32.4546ZM125.625 42.7598C125.625 44.5765 124.497 45.0464 123.933 45.2656H130.761C130.229 45.0464 129.101 44.5765 129.07 42.8538V33.7701C130.072 31.9221 131.795 30.3873 133.8 30.3873C135.71 30.3873 136.494 31.8594 136.494 34.9291V42.9791C136.4 44.6078 135.335 45.0464 134.802 45.2656H141.63C141.067 45.0464 139.939 44.5765 139.939 42.7598V35.305C139.939 31.1703 137.778 29.4476 134.833 29.4476C132.453 29.4476 130.292 30.9824 129.07 33.1437V23.3396L124.184 24.5925C125.155 24.8118 125.625 25.7515 125.625 27.0984V42.7598ZM157.194 41.037C156.004 42.7598 154.281 44.2633 151.776 44.2633C148.205 44.2633 146.325 41.0057 146.263 36.6518H156.975V36.3386C156.975 32.3919 154.814 29.4476 150.366 29.4476C145.073 29.4476 142.629 33.1437 142.629 37.6855C142.629 42.196 145.041 45.5789 150.46 45.5789C153.592 45.5789 156.317 43.7308 157.194 41.037ZM146.263 36.3386C146.294 33.5196 147.109 29.7608 150.21 29.7608C153.498 29.7608 154.188 34.146 154.188 36.3386H146.263ZM169.843 27.0984V31.8594C169.123 30.9824 167.556 29.4476 165.113 29.4476C160.916 29.4476 158.567 32.7365 158.567 37.5289C158.567 42.3839 160.979 45.5789 164.957 45.5789C167.118 45.5789 168.778 44.4826 169.843 43.1043L170.125 45.2656H174.667C173.696 44.8898 173.289 44.1693 173.289 42.1333V23.3396L168.402 24.5925C169.342 24.8118 169.843 25.7515 169.843 27.0984ZM169.843 42.6345C169.123 43.5742 168.058 44.5452 166.867 44.5452C163.297 44.5452 162.357 39.7528 162.357 36.9024C162.357 33.8015 163.171 30.356 166.053 30.356C167.65 30.356 168.935 31.3583 169.843 32.3606V42.6345ZM190.169 41.037C188.979 42.7598 187.256 44.2633 184.75 44.2633C181.179 44.2633 179.3 41.0057 179.237 36.6518H189.95V36.3386C189.95 32.3919 187.789 29.4476 183.341 29.4476C178.047 29.4476 175.604 33.1437 175.604 37.6855C175.604 42.196 178.016 45.5789 183.435 45.5789C186.567 45.5789 189.292 43.7308 190.169 41.037ZM179.237 36.3386C179.269 33.5196 180.083 29.7608 183.184 29.7608C186.473 29.7608 187.162 34.146 187.162 36.3386H179.237ZM192.606 27.0984V39.6588C192.481 44.2633 193.609 45.5789 196.396 45.5789C198.182 45.5789 199.31 44.232 199.873 42.6345C199.122 43.7621 198.432 44.4512 197.555 44.4512C195.801 44.4512 196.021 42.4466 196.052 38.7505V23.3396L191.166 24.5925C192.137 24.8118 192.606 25.7515 192.606 27.0984ZM201.967 25.3443C201.967 26.4719 202.844 27.349 204.034 27.349C205.255 27.349 206.133 26.4719 206.133 25.3443C206.133 24.2167 205.255 23.3396 204.034 23.3396C202.844 23.3396 201.967 24.154 201.967 25.3443ZM205.757 42.9164V29.4476L200.87 30.7005C201.841 30.9198 202.311 31.8594 202.311 33.2063V42.7598C202.311 44.5765 201.184 45.0464 200.62 45.2656H207.448C206.916 45.0464 205.819 44.6078 205.757 42.9164ZM222.363 32.4546C220.953 30.3873 218.949 29.4476 216.161 29.4476C210.93 29.4476 208.518 33.1437 208.518 37.5915C208.518 42.196 210.899 45.5789 216.318 45.5789C219.45 45.5789 222.175 43.7308 223.052 41.037C221.862 42.7598 220.139 44.2633 217.727 44.2633C213.217 44.2633 212.089 39.5962 212.089 36.2133C212.089 33.9894 212.872 29.7608 216.067 29.7608C218.479 29.7608 219.606 33.269 220.358 35.7435L222.363 32.4546ZM223.743 43.3236C225.028 44.7645 227.815 45.5789 230.29 45.5789C233.015 45.5789 236.46 43.8561 236.46 40.5672C236.46 37.4036 233.265 36.5892 231.981 36.2446C228.786 35.3989 227.095 34.6159 227.095 32.3606C227.095 30.6379 228.473 29.7921 229.977 29.7921C232.013 29.7921 233.516 32.298 233.767 34.146L235.646 30.8571C234.017 29.6669 231.887 29.4476 230.572 29.4476C226.97 29.4476 224.464 31.5462 224.464 34.4592C224.464 37.6542 227.22 38.4999 229.444 39.189C231.605 39.8781 233.641 40.3479 233.641 42.5405C233.641 44.0127 232.639 45.2656 230.478 45.2656C227.659 45.2656 226.03 41.5382 225.654 40.066L223.743 43.3236Z" fill="#00FFF0"/>
</g>
<defs>
<filter id="filter0_dddddd_826_2893" x="0.628654" y="0.824219" width="314.524" height="152.935" filterUnits="userSpaceOnUse" color-interpolation-filters="sRGB">
<feFlood flood-opacity="0" result="BackgroundImageFix"/>
<feColorMatrix in="SourceAlpha" type="matrix" values="0 0 0 0 0 0 0 0 0 0 0 0 0 0 0 0 0 0 127 0" result="hardAlpha"/>
<feOffset dy="1.19136"/>
<feGaussianBlur stdDeviation="0.476544"/>
<feColorMatrix type="matrix" values="0 0 0 0 0 0 0 0 0 0 0 0 0 0 0 0 0 0 0.0196802 0"/>
<feBlend mode="normal" in2="BackgroundImageFix" result="effect1_dropShadow_826_2893"/>
<feColorMatrix in="SourceAlpha" type="matrix" values="0 0 0 0 0 0 0 0 0 0 0 0 0 0 0 0 0 0 127 0" result="hardAlpha"/>
<feOffset dy="2.86301"/>
<feGaussianBlur stdDeviation="1.1452"/>
<feColorMatrix type="matrix" values="0 0 0 0 0 0 0 0 0 0 0 0 0 0 0 0 0 0 0.0282725 0"/>
<feBlend mode="normal" in2="effect1_dropShadow_826_2893" result="effect2_dropShadow_826_2893"/>
<feColorMatrix in="SourceAlpha" type="matrix" values="0 0 0 0 0 0 0 0 0 0 0 0 0 0 0 0 0 0 127 0" result="hardAlpha"/>
<feOffset dy="5.39079"/>
<feGaussianBlur stdDeviation="2.15632"/>
<feColorMatrix type="matrix" values="0 0 0 0 0 0 0 0 0 0 0 0 0 0 0 0 0 0 0.035 0"/>
<feBlend mode="normal" in2="effect2_dropShadow_826_2893" result="effect3_dropShadow_826_2893"/>
<feColorMatrix in="SourceAlpha" type="matrix" values="0 0 0 0 0 0 0 0 0 0 0 0 0 0 0 0 0 0 127 0" result="hardAlpha"/>
<feOffset dy="9.61624"/>
<feGaussianBlur stdDeviation="3.8465"/>
<feColorMatrix type="matrix" values="0 0 0 0 0 0 0 0 0 0 0 0 0 0 0 0 0 0 0.0417275 0"/>
<feBlend mode="normal" in2="effect3_dropShadow_826_2893" result="effect4_dropShadow_826_2893"/>
<feColorMatrix in="SourceAlpha" type="matrix" values="0 0 0 0 0 0 0 0 0 0 0 0 0 0 0 0 0 0 127 0" result="hardAlpha"/>
<feOffset dy="17.9861"/>
<feGaussianBlur stdDeviation="7.19445"/>
<feColorMatrix type="matrix" values="0 0 0 0 0 0 0 0 0 0 0 0 0 0 0 0 0 0 0.0503198 0"/>
<feBlend mode="normal" in2="effect4_dropShadow_826_2893" result="effect5_dropShadow_826_2893"/>
<feColorMatrix in="SourceAlpha" type="matrix" values="0 0 0 0 0 0 0 0 0 0 0 0 0 0 0 0 0 0 127 0" result="hardAlpha"/>
<feOffset dy="43.0521"/>
<feGaussianBlur stdDeviation="17.2208"/>
<feColorMatrix type="matrix" values="0 0 0 0 0 0 0 0 0 0 0 0 0 0 0 0 0 0 0.07 0"/>
<feBlend mode="normal" in2="effect5_dropShadow_826_2893" result="effect6_dropShadow_826_2893"/>
<feBlend mode="normal" in="SourceGraphic" in2="effect6_dropShadow_826_2893" result="shape"/>
</filter>
<linearGradient id="paint0_linear_826_2893" x1="106.25" y1="48.4709" x2="54.7994" y2="40.3278" gradientUnits="userSpaceOnUse">
<stop offset="0.0104167" stop-color="#00FFF0" stop-opacity="0"/>
<stop offset="0.515625" stop-color="#00FFF0"/>
<stop offset="1" stop-color="#00FFF0"/>
</linearGradient>
</defs>
</svg>
