<svg width="230" height="33" viewBox="0 0 230 33" fill="none" xmlns="http://www.w3.org/2000/svg">
<path d="M1.42844 9.78173V28.1031L6.27273 26.861C5.31008 26.6436 4.84429 25.712 4.84429 24.3767V19.5945C5.68272 20.464 7.01801 22.0477 9.06751 22.0477C13.6323 22.0477 15.9613 18.7871 15.9613 14.036C15.9613 9.22278 13.5702 6.05536 9.62647 6.05536C7.51486 6.05536 5.90009 7.01801 4.84429 8.32224V6.05536L0 7.29748C0.931594 7.51486 1.42844 8.44645 1.42844 9.78173ZM4.84429 8.75698C5.55851 7.88749 6.58326 7.08011 7.70117 7.08011C11.2723 7.08011 12.2039 11.8312 12.2039 14.8744C12.2039 17.7313 11.3654 21.1161 8.29118 21.1161C6.9559 21.1161 5.71377 20.0914 4.84429 19.1598V8.75698Z" fill="white"/>
<path d="M16.9822 19.8119C18.2554 21.2403 21.0191 22.0477 23.4723 22.0477C26.1739 22.0477 29.5897 20.3398 29.5897 17.0792C29.5897 13.9429 26.4223 13.1355 25.1491 12.7939C21.9817 11.9555 20.3049 11.1791 20.3049 8.9433C20.3049 7.23538 21.6712 6.39694 23.1617 6.39694C25.1802 6.39694 26.6708 8.88119 26.9192 10.7133L28.7824 7.45275C27.1676 6.27273 25.056 6.05536 23.7518 6.05536C20.1807 6.05536 17.6964 8.13592 17.6964 11.0239C17.6964 14.1913 20.4291 15.0297 22.6338 15.7129C24.7765 16.3961 26.795 16.8618 26.795 19.0356C26.795 20.4951 25.8013 21.7372 23.6586 21.7372C20.8638 21.7372 19.2491 18.0419 18.8764 16.5824L16.9822 19.8119Z" fill="white"/>
<path d="M45.5341 6.36589H40.8451C42.8946 6.67642 44.1677 8.50856 42.7082 11.676L39.7582 18.1971L35.9076 9.4712C35.1002 7.70118 35.1934 6.9559 36.4045 6.36589H30.4423C31.0012 6.9559 31.4981 7.79433 32.1502 9.25383L37.9882 22.0788C37.0566 24.4388 35.4108 25.5257 33.6097 25.5257C32.7402 25.5257 31.8086 25.2462 31.1565 24.8425L33.0818 28.1031C35.9076 28.1962 37.6466 23.6314 38.6092 21.5198L45.5341 6.36589Z" fill="white"/>
<path d="M59.7976 9.03646C58.4003 6.98695 56.4129 6.05536 53.6491 6.05536C48.4633 6.05536 46.0722 9.71963 46.0722 14.1292C46.0722 18.694 48.4322 22.0477 53.8044 22.0477C56.9097 22.0477 59.6113 20.2156 60.4808 17.545C59.3008 19.2529 57.5929 20.7435 55.2018 20.7435C50.7301 20.7435 49.6122 16.1166 49.6122 12.7628C49.6122 10.5581 50.3885 6.36589 53.556 6.36589C55.9471 6.36589 57.065 9.84384 57.8102 12.297L59.7976 9.03646Z" fill="white"/>
<path d="M62.8741 19.2529C62.8741 21.054 61.7562 21.5198 61.1972 21.7372H67.9668C67.4389 21.5198 66.321 21.054 66.2899 19.3461V10.3407C67.2836 8.50856 68.9916 6.98695 70.979 6.98695C72.8732 6.98695 73.6495 8.44645 73.6495 11.4897V19.4703C73.5564 21.0851 72.5005 21.5198 71.9726 21.7372H78.7422C78.1833 21.5198 77.0654 21.054 77.0654 19.2529V11.8623C77.0654 7.76328 74.9227 6.05536 72.0037 6.05536C69.6437 6.05536 67.501 7.57696 66.2899 9.71963V0L61.4456 1.24213C62.4083 1.4595 62.8741 2.39109 62.8741 3.72637V19.2529Z" fill="white"/>
<path d="M94.1722 17.545C92.9922 19.2529 91.2843 20.7435 88.8 20.7435C85.26 20.7435 83.3968 17.514 83.3347 13.1976H93.9549V12.887C93.9549 8.97435 91.8122 6.05536 87.4027 6.05536C82.1547 6.05536 79.7325 9.71963 79.7325 14.2223C79.7325 18.694 82.1236 22.0477 87.4958 22.0477C90.6011 22.0477 93.3028 20.2156 94.1722 17.545ZM83.3347 12.887C83.3658 10.0923 84.1731 6.36589 87.2474 6.36589C90.508 6.36589 91.1911 10.7133 91.1911 12.887H83.3347Z" fill="white"/>
<path d="M106.712 3.72637V8.44645C105.998 7.57696 104.445 6.05536 102.023 6.05536C97.8617 6.05536 95.5328 9.31594 95.5328 14.0671C95.5328 18.8803 97.9238 22.0477 101.868 22.0477C104.01 22.0477 105.656 20.9609 106.712 19.5945L106.991 21.7372H111.494C110.531 21.3646 110.128 20.6503 110.128 18.6319V0L105.283 1.24213C106.215 1.4595 106.712 2.39109 106.712 3.72637ZM106.712 19.1287C105.998 20.0603 104.942 21.023 103.762 21.023C100.222 21.023 99.2902 16.2718 99.2902 13.446C99.2902 10.3717 100.098 6.9559 102.954 6.9559C104.538 6.9559 105.811 7.9496 106.712 8.9433V19.1287Z" fill="white"/>
<path d="M126.863 17.545C125.683 19.2529 123.975 20.7435 121.491 20.7435C117.951 20.7435 116.087 17.514 116.025 13.1976H126.646V12.887C126.646 8.97435 124.503 6.05536 120.093 6.05536C114.845 6.05536 112.423 9.71963 112.423 14.2223C112.423 18.694 114.814 22.0477 120.187 22.0477C123.292 22.0477 125.993 20.2156 126.863 17.545ZM116.025 12.887C116.056 10.0923 116.864 6.36589 119.938 6.36589C123.199 6.36589 123.882 10.7133 123.882 12.887H116.025Z" fill="white"/>
<path d="M129.279 3.72637V16.1787C129.155 20.7435 130.273 22.0477 133.037 22.0477C134.807 22.0477 135.925 20.7124 136.484 19.1287C135.738 20.2466 135.055 20.9298 134.186 20.9298C132.447 20.9298 132.664 18.9424 132.695 15.2781V0L127.851 1.24213C128.813 1.4595 129.279 2.39109 129.279 3.72637Z" fill="white"/>
<path d="M138.559 1.9874C138.559 3.10531 139.428 3.9748 140.608 3.9748C141.819 3.9748 142.689 3.10531 142.689 1.9874C142.689 0.869488 141.819 0 140.608 0C139.428 0 138.559 0.807382 138.559 1.9874ZM142.316 19.4082V6.05536L137.472 7.29748C138.435 7.51486 138.9 8.44645 138.9 9.78173V19.2529C138.9 21.054 137.782 21.5198 137.224 21.7372H143.993C143.465 21.5198 142.378 21.0851 142.316 19.4082Z" fill="white"/>
<path d="M158.779 9.03646C157.382 6.98695 155.395 6.05536 152.631 6.05536C147.445 6.05536 145.054 9.71963 145.054 14.1292C145.054 18.694 147.414 22.0477 152.786 22.0477C155.892 22.0477 158.593 20.2156 159.463 17.545C158.283 19.2529 156.575 20.7435 154.184 20.7435C149.712 20.7435 148.594 16.1166 148.594 12.7628C148.594 10.5581 149.37 6.36589 152.538 6.36589C154.929 6.36589 156.047 9.84384 156.792 12.297L158.779 9.03646Z" fill="white"/>
<path d="M160.148 19.8119C161.421 21.2403 164.185 22.0477 166.638 22.0477C169.34 22.0477 172.756 20.3398 172.756 17.0792C172.756 13.9429 169.588 13.1355 168.315 12.7939C165.148 11.9555 163.471 11.1791 163.471 8.9433C163.471 7.23538 164.837 6.39694 166.328 6.39694C168.346 6.39694 169.837 8.88119 170.085 10.7133L171.948 7.45275C170.333 6.27273 168.222 6.05536 166.918 6.05536C163.346 6.05536 160.862 8.13592 160.862 11.0239C160.862 14.1913 163.595 15.0297 165.8 15.7129C167.942 16.3961 169.961 16.8618 169.961 19.0356C169.961 20.4951 168.967 21.7372 166.824 21.7372C164.03 21.7372 162.415 18.0419 162.042 16.5824L160.148 19.8119Z" fill="white"/>
<path d="M177.962 20.0914C177.962 21.2093 178.832 22.0477 180.012 22.0477C181.223 22.0477 182.092 21.2093 182.092 20.0914C182.092 18.9735 181.223 18.135 180.012 18.135C178.832 18.135 177.962 18.9114 177.962 20.0914Z" fill="white"/>
<path d="M197.232 12.6315C196.22 11.1483 194.782 10.4741 192.782 10.4741C189.029 10.4741 187.298 13.1259 187.298 16.3171C187.298 19.6206 189.006 22.0477 192.894 22.0477C195.142 22.0477 197.097 20.7218 197.726 18.7891C196.872 20.0251 195.636 21.1039 193.906 21.1039C190.669 21.1039 189.86 17.7554 189.86 15.3283C189.86 13.7327 190.422 10.6988 192.714 10.6988C194.445 10.6988 195.254 13.2158 195.793 14.9912L197.232 12.6315Z" fill="white"/>
<path d="M203.795 22.0477C207.009 22.0477 209.121 19.733 209.121 16.2497C209.121 12.7663 207.009 10.4741 203.795 10.4741C200.559 10.4741 198.424 12.7663 198.424 16.2497C198.424 19.733 200.559 22.0477 203.795 22.0477ZM204.11 21.823C202.469 21.9129 201.323 19.8004 201.143 16.362C200.986 12.9686 201.885 10.7662 203.481 10.6988C205.076 10.6089 206.245 12.6764 206.402 16.1373C206.582 19.5307 205.661 21.7556 204.11 21.823Z" fill="white"/>
<path d="M213.562 20.1375V13.5529C214.236 12.227 215.404 11.1483 216.775 11.1483C218.079 11.1483 218.483 12.2045 218.483 14.1821V20.1825C218.438 21.3511 217.697 21.6657 217.337 21.823H222.101C221.742 21.6657 220.955 21.3286 220.955 20.0251V14.6765C220.955 14.317 220.933 13.9799 220.888 13.6652C221.54 12.2944 222.753 11.1483 224.124 11.1483C225.427 11.1483 225.832 12.2045 225.832 14.1821V20.1825C225.765 21.3511 225.045 21.6657 224.686 21.823H229.473C229.091 21.6657 228.327 21.3286 228.304 20.0251V14.6765C228.304 11.7101 226.843 10.4741 224.843 10.4741C223.158 10.4741 221.63 11.6427 220.82 13.3057C220.438 11.328 219.135 10.4741 217.472 10.4741C215.876 10.4741 214.393 11.5528 213.562 13.1034V10.4741L210.056 11.373C210.753 11.5303 211.09 12.2045 211.09 13.1708V20.0251C211.09 21.3286 210.281 21.6657 209.876 21.823H214.775C214.393 21.6657 213.607 21.3511 213.562 20.1375Z" fill="white"/>
</svg>
